<svg width="44" height="16" viewBox="0 0 44 16" fill="none" xmlns="http://www.w3.org/2000/svg">
<path fill-rule="evenodd" clip-rule="evenodd" d="M5.63617 0.709498C2.77299 4.1068 0.0277513 8.31976 0.000223493 11.4688C-0.0104978 12.6536 0.36388 13.688 1.26186 14.4714C2.55422 15.5998 3.97813 15.9976 5.39509 16C7.46575 16.0029 9.52193 15.1589 11.1319 14.508C13.8432 13.4125 43.8146 0.262146 43.8146 0.262146C44.1038 0.115761 44.0496 -0.0666338 43.6877 0.0244176C43.5416 0.0613066 11.0591 8.95536 11.0591 8.95536C10.4439 9.13118 9.8081 9.22314 9.16871 9.22881C6.67238 9.24374 4.45103 7.84371 4.469 4.89347C4.47595 3.73908 4.8257 2.34696 5.63617 0.709498V0.709498Z" fill="black"/>
</svg>
